# xmcd
#
# Track frame offsets:
#	150
#	15095
#	31977
#	52767
#	68150
#	86930
#	98177
#	132060
#	144582
#	174215
#	188625
#	200595
#	232575
#	253852
#	288817
#	306660
#	319347
#
# Disc length: 4633 seconds
#
# Revision: 1
# Processed by: cddbd v1.4PL0 Copyright (c) Steve Scherf et al.
# Submitted via: audiograbber 1.81.03
#
DISCID=e0121711
DTITLE=Various Artist - The Very Best Of 25 Years British Blues [CD 1]
DYEAR=1993
DGENRE=Blues
TTITLE0=Steamhammer - Juniors Wailing
TTITLE1=Love Sculpture Featuring Dave Edmund - Blues Helping
TTITLE2=Humple Pie - Alabama 69
TTITLE3=Albert Lee - What A Stupid Thing To Do
TTITLE4=Long John Baldry - Shake That Thang
TTITLE5=Taste Featuring Rory Gallagher - I'm Moving On
TTITLE6=Colosseum - Stormy Monday Blues
TTITLE7=Procul Harum - Seems To Have The Blues All The Time
TTITLE8=Savoy Brown - Tolling Bells
TTITLE9=Rod Stewart - So Much To Say
TTITLE10=Jeff Beck - Steelin'
TTITLE11=Bakerloo - This Worried Feeling
TTITLE12=Alexis Korner, Robert Plant and Steve Miller - Operator
TTITLE13=Peter Green - A Fool No More
TTITLE14=John Mayall - Telephone Blues
TTITLE15=Jimmy Page and Eric Clapton - Freight Loader
TTITLE16=Joe Cocker - St. James Infirmary
EXTD=
EXTT0=
EXTT1=
EXTT2=
EXTT3=
EXTT4=
EXTT5=
EXTT6=
EXTT7=
EXTT8=
EXTT9=
EXTT10=
EXTT11=
EXTT12=
EXTT13=
EXTT14=
EXTT15=
EXTT16=
PLAYORDER=
